<?xml version="1.0" encoding="UTF-8" standalone="no"?>
<svg
   width="16"
   height="16"
   fill="currentColor"
   class="bi bi-map"
   viewBox="0 0 16 16"
   version="1.1"
   id="svg4"
   sodipodi:docname="map_edited.svg"
   inkscape:version="1.1.2 (b8e25be833, 2022-02-05)"
   xmlns:inkscape="http://www.inkscape.org/namespaces/inkscape"
   xmlns:sodipodi="http://sodipodi.sourceforge.net/DTD/sodipodi-0.dtd"
   xmlns="http://www.w3.org/2000/svg"
   xmlns:svg="http://www.w3.org/2000/svg">
  <defs
     id="defs8" />
  <sodipodi:namedview
     id="namedview6"
     pagecolor="#ffffff"
     bordercolor="#666666"
     borderopacity="1.0"
     inkscape:pageshadow="2"
     inkscape:pageopacity="0.0"
     inkscape:pagecheckerboard="0"
     showgrid="false"
     showguides="true"
     inkscape:guide-bbox="true"
     inkscape:zoom="6.34375"
     inkscape:cx="1.8128079"
     inkscape:cy="22.463054"
     inkscape:window-width="1920"
     inkscape:window-height="1001"
     inkscape:window-x="-9"
     inkscape:window-y="-9"
     inkscape:window-maximized="1"
     inkscape:current-layer="svg4">
    <sodipodi:guide
       position="36.571429,-0.078817717"
       orientation="0,-1"
       id="guide11083" />
    <sodipodi:guide
       position="45.083744,7.3300493"
       orientation="0,-1"
       id="guide14989" />
  </sodipodi:namedview>
  <path
     fill-rule="evenodd"
     d="M15.817.113A.5.5 0 0 1 16 .5v14a.5.5 0 0 1-.402.49l-5 1a.502.502 0 0 1-.196 0L5.5 15.01l-4.902.98A.5.5 0 0 1 0 15.5v-14a.5.5 0 0 1 .402-.49l5-1a.5.5 0 0 1 .196 0L10.5.99l4.902-.98a.5.5 0 0 1 .415.103zM10 1.91l-4-.8v12.98l4 .8V1.91zm1 12.98 4-.8V1.11l-4 .8v12.98zm-6-.8V1.11l-4 .8v12.98l4-.8z"
     id="path2"
     inkscape:export-filename="D:\CODE\JS\complete-javascript-course\15-Mapty\result\logo2.png"
     inkscape:export-xdpi="300"
     inkscape:export-ydpi="300"
     style="stroke:none;stroke-opacity:1;fill:#f99417;fill-opacity:1" />
  <text
     xml:space="preserve"
     style="font-size:13.3333px;line-height:1.25;font-family:sans-serif;fill:#f99417;fill-opacity:1;stroke:none;stroke-opacity:1"
     x="17.41872"
     y="13.241379"
     id="text9891"
     inkscape:export-filename="D:\CODE\JS\complete-javascript-course\15-Mapty\result\logo2.png"
     inkscape:export-xdpi="300"
     inkscape:export-ydpi="300"><tspan
       sodipodi:role="line"
       id="tspan9889"
       x="17.41872"
       y="13.241379"
       style="font-style:normal;font-variant:normal;font-weight:normal;font-stretch:normal;font-family:HGH6_CNKI;-inkscape-font-specification:HGH6_CNKI">LiuLiuMap</tspan></text>
</svg>
